<svg width="360" height="52" viewBox="0 0 360 52" fill="none" xmlns="http://www.w3.org/2000/svg">
<rect width="360" height="52" fill="#FCDC36"/>
<path d="M89.3672 34L92.1472 20.9414H96.5561C97.6126 20.9414 98.3976 21.1775 98.9111 21.6497C99.4246 22.116 99.6813 22.7386 99.6813 23.5177C99.6813 23.984 99.6075 24.4562 99.46 24.9343C99.3124 25.4123 99.1029 25.855 98.8314 26.2622C98.5599 26.6695 98.2353 27.0059 97.8575 27.2715C97.4857 27.5371 97.0755 27.6935 96.6269 27.7407C96.8984 27.7643 97.1493 27.8322 97.3794 27.9444C97.6155 28.0506 97.8044 28.2188 97.9461 28.449C98.0936 28.6733 98.1674 28.9713 98.1674 29.3432C98.1674 29.5025 98.1408 29.7239 98.0877 30.0072C98.0346 30.2905 97.9697 30.6062 97.8929 30.9545C97.8162 31.2968 97.7395 31.6421 97.6628 31.9903C97.586 32.3326 97.5211 32.6484 97.468 32.9376C97.4149 33.2268 97.3883 33.454 97.3883 33.6193C97.3883 33.7078 97.3913 33.7875 97.3972 33.8583C97.409 33.9233 97.4237 33.9705 97.4414 34H95.9187C95.8891 33.9233 95.8744 33.8052 95.8744 33.6459C95.8744 33.4924 95.898 33.2829 95.9452 33.0173C95.9983 32.7458 96.0603 32.4536 96.1311 32.1408C96.2079 31.8221 96.2816 31.5063 96.3525 31.1935C96.4233 30.8748 96.4823 30.5826 96.5295 30.317C96.5827 30.0514 96.6092 29.8449 96.6092 29.6973C96.6092 29.2487 96.4499 28.9241 96.1311 28.7234C95.8124 28.5228 95.3727 28.4224 94.812 28.4224H91.3681L92.1472 27.9001L90.8457 34H89.3672ZM92.2091 27.5991L91.616 27.0944H95.1042C95.659 27.0944 96.1606 26.9528 96.6092 26.6695C97.0578 26.3862 97.4149 26.0114 97.6805 25.5451C97.9461 25.0789 98.0789 24.5683 98.0789 24.0135C98.0789 23.4705 97.9224 23.0456 97.6096 22.7386C97.2968 22.4258 96.7892 22.2694 96.0869 22.2694H92.6961L93.5194 21.4195L92.2091 27.5991Z" fill="#41197F"/>
<path d="M104.378 22.2694L105.236 21.4107L103.988 27.3069L103.722 26.7846H108.733L108.459 28.1126H103.448L103.926 27.5902L102.669 33.5308L102.164 32.672H108.468L108.184 34H101.049L103.829 20.9414H110.964L110.681 22.2694H104.378Z" fill="#41197F"/>
<path d="M121.35 29.4583C121.238 29.9836 121.031 30.5236 120.73 31.0784C120.435 31.6273 120.045 32.1379 119.561 32.61C119.083 33.0763 118.523 33.454 117.879 33.7432C117.236 34.0325 116.513 34.1771 115.71 34.1771C114.783 34.1771 114.022 33.9734 113.426 33.5662C112.836 33.1589 112.399 32.6012 112.116 31.8929C111.838 31.1788 111.7 30.3672 111.7 29.4583C111.7 28.3546 111.85 27.2863 112.151 26.2534C112.458 25.2205 112.898 24.2939 113.47 23.4735C114.049 22.6472 114.745 21.992 115.56 21.508C116.38 21.0241 117.304 20.7821 118.331 20.7821C119.287 20.7821 120.054 20.9768 120.633 21.3664C121.217 21.75 121.639 22.2399 121.899 22.836C122.158 23.4321 122.288 24.046 122.288 24.6775C122.288 24.8369 122.279 24.9844 122.262 25.1202C122.244 25.2559 122.22 25.3769 122.191 25.4832H120.677C120.695 25.3946 120.712 25.2766 120.73 25.129C120.754 24.9756 120.765 24.8339 120.765 24.7041C120.765 24.2319 120.671 23.804 120.482 23.4203C120.299 23.0367 120.016 22.7298 119.632 22.4996C119.248 22.2694 118.759 22.1543 118.162 22.1543C117.366 22.1543 116.66 22.3668 116.047 22.7918C115.433 23.2167 114.916 23.7833 114.497 24.4916C114.078 25.1999 113.762 25.9878 113.55 26.8554C113.337 27.7171 113.231 28.5877 113.231 29.4671C113.231 30.5531 113.447 31.3824 113.877 31.9549C114.308 32.5274 114.969 32.8137 115.861 32.8137C116.386 32.8137 116.87 32.7192 117.313 32.5303C117.761 32.3356 118.157 32.0759 118.499 31.7513C118.847 31.4266 119.133 31.0666 119.358 30.6712C119.588 30.2698 119.747 29.8655 119.836 29.4583H121.35Z" fill="#41197F"/>
<path d="M123.565 34L126.336 20.9414H127.832L125.07 34H123.565Z" fill="#41197F"/>
<path d="M130.31 34H128.796L131.576 20.9414H135.153C136.044 20.9414 136.764 21.0949 137.313 21.4018C137.862 21.7087 138.263 22.1219 138.517 22.6413C138.777 23.1547 138.906 23.7273 138.906 24.3588C138.906 25.1379 138.777 25.8402 138.517 26.4659C138.257 27.0856 137.888 27.6197 137.41 28.0683C136.932 28.511 136.363 28.8503 135.702 29.0864C135.046 29.3225 134.321 29.4406 133.524 29.4406H131.284L130.31 34ZM131.399 28.8828L130.885 28.1126H133.533C134.318 28.1126 134.999 27.9562 135.578 27.6433C136.156 27.3305 136.605 26.8938 136.923 26.3331C137.242 25.7724 137.401 25.1172 137.401 24.3676C137.401 23.9191 137.31 23.5413 137.127 23.2344C136.95 22.9216 136.667 22.6826 136.277 22.5173C135.893 22.3521 135.392 22.2694 134.772 22.2694H132.125L132.984 21.4107L131.399 28.8828Z" fill="#41197F"/>
<path d="M143.461 22.2694L144.319 21.4107L143.071 27.3069L142.805 26.7846H147.816L147.542 28.1126H142.531L143.009 27.5902L141.752 33.5308L141.247 32.672H147.551L147.267 34H140.132L142.912 20.9414H150.047L149.764 22.2694H143.461Z" fill="#41197F"/>
<path d="M154.73 34.1771C153.98 34.1771 153.328 34.0708 152.773 33.8583C152.218 33.64 151.79 33.3212 151.489 32.9022C151.188 32.4772 151.038 31.9519 151.038 31.3263C151.038 31.0371 151.059 30.7715 151.1 30.5295C151.147 30.2875 151.209 30.0072 151.286 29.6885H152.791C152.714 29.9954 152.658 30.2551 152.623 30.4675C152.593 30.68 152.578 30.8895 152.578 31.0961C152.578 31.7218 152.773 32.1644 153.163 32.4241C153.558 32.6838 154.131 32.8137 154.88 32.8137C155.518 32.8137 156.087 32.7281 156.589 32.5569C157.091 32.3798 157.486 32.1113 157.775 31.7513C158.064 31.3853 158.209 30.9161 158.209 30.3436C158.209 29.7829 157.979 29.3225 157.519 28.9625C157.064 28.6025 156.444 28.2955 155.659 28.0417C155.063 27.8411 154.526 27.5932 154.048 27.2981C153.576 26.9971 153.201 26.6341 152.924 26.2091C152.652 25.7842 152.516 25.2913 152.516 24.7306C152.516 24.0991 152.637 23.5384 152.879 23.0485C153.127 22.5586 153.47 22.1455 153.906 21.8091C154.343 21.4726 154.851 21.2188 155.429 21.0477C156.008 20.8706 156.633 20.7821 157.306 20.7821C158.056 20.7821 158.705 20.8883 159.254 21.1008C159.809 21.3074 160.236 21.6143 160.537 22.0215C160.839 22.4288 160.989 22.9334 160.989 23.5354C160.989 23.7951 160.968 24.0548 160.927 24.3145C160.886 24.5742 160.833 24.8457 160.768 25.129H159.254C159.319 24.8575 159.366 24.6155 159.395 24.4031C159.431 24.1847 159.449 23.9692 159.449 23.7568C159.449 23.1547 159.251 22.7357 158.855 22.4996C158.46 22.2635 157.89 22.1455 157.147 22.1455C156.545 22.1455 156.008 22.2252 155.535 22.3845C155.063 22.5439 154.691 22.7947 154.42 23.137C154.148 23.4735 154.013 23.9132 154.013 24.4562C154.013 25.0759 154.255 25.5628 154.739 25.917C155.223 26.2652 155.869 26.581 156.677 26.8643C157.309 27.0826 157.852 27.3394 158.306 27.6345C158.761 27.9296 159.109 28.2778 159.351 28.6792C159.599 29.0805 159.723 29.5498 159.723 30.0868C159.723 30.9545 159.502 31.6952 159.059 32.309C158.622 32.9169 158.026 33.3803 157.271 33.699C156.521 34.0177 155.674 34.1771 154.73 34.1771Z" fill="#41197F"/>
<path d="M169.012 34.1976C168.353 34.1976 167.766 34.0945 167.251 33.8883C166.735 33.6764 166.329 33.37 166.031 32.9691C165.733 32.5682 165.584 32.0814 165.584 31.5086C165.584 30.85 165.77 30.3174 166.143 29.9107C166.515 29.4984 166.999 29.1862 167.595 28.9743C168.19 28.7567 168.82 28.6164 169.485 28.5534C170.447 28.4617 171.102 28.3815 171.452 28.3128C171.807 28.2384 171.984 28.1124 171.984 27.9348C171.984 27.9291 171.984 27.9262 171.984 27.9262C171.984 27.9205 171.984 27.9176 171.984 27.9176C171.984 27.6427 171.838 27.4194 171.546 27.2475C171.26 27.0757 170.865 26.9898 170.361 26.9898C169.828 26.9898 169.424 27.0872 169.149 27.2819C168.88 27.4709 168.746 27.7601 168.746 28.1496H165.722C165.722 27.3993 165.928 26.7693 166.34 26.2596C166.758 25.7441 167.32 25.3547 168.024 25.0912C168.729 24.8278 169.516 24.696 170.387 24.696C171.211 24.696 171.976 24.8192 172.68 25.0655C173.391 25.3117 173.963 25.6869 174.399 26.1909C174.84 26.6949 175.06 27.3363 175.06 28.1152C175.06 28.2355 175.06 28.3558 175.06 28.476C175.06 28.5963 175.06 28.7166 175.06 28.8369V31.8609C175.06 32.1014 175.066 32.3362 175.077 32.5653C175.089 32.7887 175.12 32.9949 175.172 33.1839C175.235 33.39 175.312 33.5647 175.404 33.7079C175.501 33.8511 175.578 33.9485 175.636 34H172.637C172.592 33.9542 172.523 33.8654 172.431 33.7337C172.345 33.602 172.271 33.4502 172.208 33.2784C172.133 33.0493 172.079 32.8288 172.045 32.6169C172.01 32.3992 171.993 32.1415 171.993 31.8437L172.646 32.2904C172.486 32.6856 172.222 33.0264 171.856 33.3127C171.495 33.5991 171.068 33.8196 170.576 33.9742C170.083 34.1231 169.562 34.1976 169.012 34.1976ZM169.888 31.9725C170.243 31.9725 170.584 31.901 170.911 31.7578C171.237 31.6146 171.506 31.3855 171.718 31.0705C171.93 30.7555 172.036 30.3345 172.036 29.8076V29.1805L172.809 29.8678C172.431 29.9995 172.002 30.1112 171.521 30.2028C171.039 30.2887 170.57 30.3546 170.112 30.4004C169.625 30.452 169.261 30.535 169.021 30.6495C168.78 30.7641 168.66 30.9531 168.66 31.2165C168.66 31.4685 168.763 31.6575 168.969 31.7835C169.181 31.9095 169.487 31.9725 169.888 31.9725Z" fill="#41197F"/>
<path d="M176.843 37.7542V24.8765H179.91V37.7542H176.843ZM182.668 34.2148C181.946 34.2148 181.285 34.0172 180.683 33.622C180.088 33.2211 179.612 32.6856 179.257 32.0155C178.902 31.3397 178.725 30.5865 178.725 29.7561C178.725 29.7332 178.725 29.7103 178.725 29.6874C178.725 29.6587 178.725 29.6301 178.725 29.6015L179.91 29.5757C179.91 29.5929 179.91 29.6129 179.91 29.6358C179.91 29.653 179.91 29.6673 179.91 29.6788C179.91 30.0797 180.002 30.4262 180.185 30.7183C180.374 31.0046 180.615 31.2251 180.907 31.3798C181.205 31.5287 181.511 31.6031 181.826 31.6031C182.336 31.6031 182.788 31.4256 183.183 31.0705C183.579 30.7154 183.776 30.1541 183.776 29.3867C183.776 28.6192 183.579 28.0665 183.183 27.7286C182.794 27.385 182.341 27.2132 181.826 27.2132C181.517 27.2132 181.213 27.2876 180.915 27.4365C180.623 27.5797 180.383 27.7916 180.194 28.0723C180.005 28.3472 179.91 28.688 179.91 29.0946L178.725 29.0173C178.725 28.1811 178.902 27.4394 179.257 26.7922C179.612 26.145 180.088 25.6353 180.683 25.263C181.285 24.885 181.946 24.696 182.668 24.696C183.407 24.696 184.1 24.8765 184.747 25.2373C185.4 25.5981 185.927 26.1279 186.328 26.8266C186.734 27.5253 186.938 28.3787 186.938 29.3867C186.938 30.4462 186.74 31.334 186.345 32.0499C185.95 32.7658 185.428 33.307 184.781 33.6735C184.134 34.0344 183.43 34.2148 182.668 34.2148Z" fill="#41197F"/>
<path d="M188.404 37.7542V24.8765H191.471V37.7542H188.404ZM194.229 34.2148C193.507 34.2148 192.846 34.0172 192.244 33.622C191.649 33.2211 191.173 32.6856 190.818 32.0155C190.463 31.3397 190.286 30.5865 190.286 29.7561C190.286 29.7332 190.286 29.7103 190.286 29.6874C190.286 29.6587 190.286 29.6301 190.286 29.6015L191.471 29.5757C191.471 29.5929 191.471 29.6129 191.471 29.6358C191.471 29.653 191.471 29.6673 191.471 29.6788C191.471 30.0797 191.563 30.4262 191.746 30.7183C191.935 31.0046 192.176 31.2251 192.468 31.3798C192.765 31.5287 193.072 31.6031 193.387 31.6031C193.897 31.6031 194.349 31.4256 194.744 31.0705C195.139 30.7154 195.337 30.1541 195.337 29.3867C195.337 28.6192 195.139 28.0665 194.744 27.7286C194.355 27.385 193.902 27.2132 193.387 27.2132C193.078 27.2132 192.774 27.2876 192.476 27.4365C192.184 27.5797 191.944 27.7916 191.755 28.0723C191.566 28.3472 191.471 28.688 191.471 29.0946L190.286 29.0173C190.286 28.1811 190.463 27.4394 190.818 26.7922C191.173 26.145 191.649 25.6353 192.244 25.263C192.846 24.885 193.507 24.696 194.229 24.696C194.968 24.696 195.661 24.8765 196.308 25.2373C196.961 25.5981 197.488 26.1279 197.888 26.8266C198.295 27.5253 198.498 28.3787 198.498 29.3867C198.498 30.4462 198.301 31.334 197.906 32.0499C197.51 32.7658 196.989 33.307 196.342 33.6735C195.695 34.0344 194.99 34.2148 194.229 34.2148Z" fill="#41197F"/>
<path fill-rule="evenodd" clip-rule="evenodd" d="M47.3022 23.3109V20.6482V23.3109Z" fill="#8958A3"/>
<path d="M47.3022 23.3109V20.6482" stroke="#8958A3" stroke-width="1.33139" stroke-linecap="square"/>
<path fill-rule="evenodd" clip-rule="evenodd" d="M66.6073 41.9504C66.6073 31.2885 57.9641 22.6453 47.3022 22.6453C36.6403 22.6453 27.9971 31.2885 27.9971 41.9504H66.6073Z" fill="#41197F"/>
<path d="M47.3022 25.9737C41.0367 25.9737 35.6135 29.5804 32.9956 34.8309" stroke="white" stroke-width="1.33139" stroke-linecap="round"/>
<path d="M66.9402 41.9504H27.6642C26.7451 41.9504 26 42.6955 26 43.6146C26 44.5337 26.7451 45.2788 27.6642 45.2788H66.9402C67.8593 45.2788 68.6044 44.5337 68.6044 43.6146C68.6044 42.6955 67.8593 41.9504 66.9402 41.9504Z" fill="#8958A3"/>
<path fill-rule="evenodd" clip-rule="evenodd" d="M44.6395 19.3168H49.965V21.3139H44.6395V19.3168Z" fill="#41197F"/>
<path fill-rule="evenodd" clip-rule="evenodd" d="M56.3205 6C53.7159 6 51.6044 7.57238 51.6044 10.7638C51.6044 13.9552 58.7248 21.1321 59.927 21.1321C61.1292 21.1321 68.2496 13.9552 68.2496 10.7638C68.2496 7.57238 66.1381 6 63.5335 6C62.0867 6 60.7921 6.65802 59.927 7.69394C59.0619 6.65802 57.7673 6 56.3205 6Z" fill="#E44343"/>
<path d="M56.7189 8.27313C55.014 8.27313 53.3092 9.97798 54.4458 12.2511" stroke="white" stroke-width="1.51321" stroke-linecap="round"/>
</svg>
