<svg width="46" height="46" viewBox="0 0 46 46" fill="none" xmlns="http://www.w3.org/2000/svg">
<rect x="0.905605" y="0.905605" width="43.469" height="43.469" rx="21.7345" stroke="#FCC436" stroke-width="1.81121"/>
<path d="M34.5569 17.1075C34.5569 18.1136 34.1573 19.0785 33.4459 19.7898C32.7345 20.5012 31.7697 20.9009 30.7636 20.9009C29.1249 20.9009 27.7289 19.8539 27.213 18.4125C26.5454 19.0042 25.6653 19.3836 24.6942 19.3836C23.8445 19.3836 23.0555 19.0953 22.4182 18.6249C21.7809 19.0953 21.0071 19.3836 20.1422 19.3836C19.1711 19.3836 18.2911 19.0042 17.6234 18.4125C17.1075 19.8539 15.7116 20.9009 14.0728 20.9009C13.0668 20.9009 12.1019 20.5012 11.3905 19.7898C10.6791 19.0785 10.2795 18.1136 10.2795 17.1075C10.2795 15.226 11.6603 13.6632 13.4659 13.3749C13.3749 13.1169 13.3142 12.8438 13.3142 12.5555C13.3142 11.9519 13.554 11.373 13.9808 10.9461C14.4076 10.5193 14.9865 10.2795 15.5902 10.2795C15.8937 10.2795 16.1819 10.3402 16.4399 10.4464C16.6978 9.47532 17.5779 8.76217 18.6249 8.76217C19.0042 8.76217 19.3835 8.86838 19.6567 9.02012C20.1422 8.0035 21.1892 7.24483 22.4182 7.24483C23.6473 7.24483 24.6942 8.0035 25.1798 9.02012C25.4529 8.86838 25.8322 8.76217 26.2116 8.76217C27.2585 8.76217 28.1386 9.47532 28.3965 10.4464C28.6545 10.3402 28.9428 10.2795 29.2463 10.2795C29.8499 10.2795 30.4288 10.5193 30.8556 10.9461C31.2825 11.373 31.5223 11.9519 31.5223 12.5555C31.5223 12.8438 31.4616 13.1169 31.3705 13.3749C33.1762 13.6632 34.5569 15.226 34.5569 17.1075ZM19.3835 22.4182C18.9811 22.4182 18.5952 22.5781 18.3106 22.8627C18.0261 23.1472 17.8662 23.5332 17.8662 23.9356C17.8662 24.338 18.0261 24.7239 18.3106 25.0085C18.5952 25.2931 18.9811 25.4529 19.3835 25.4529C19.786 25.4529 20.1719 25.2931 20.4565 25.0085C20.741 24.7239 20.9009 24.338 20.9009 23.9356C20.9009 23.5332 20.741 23.1472 20.4565 22.8627C20.1719 22.5781 19.786 22.4182 19.3835 22.4182ZM25.4529 22.4182C25.0505 22.4182 24.6645 22.5781 24.38 22.8627C24.0954 23.1472 23.9356 23.5332 23.9356 23.9356C23.9356 24.338 24.0954 24.7239 24.38 25.0085C24.6645 25.2931 25.0505 25.4529 25.4529 25.4529C25.8553 25.4529 26.2413 25.2931 26.5258 25.0085C26.8104 24.7239 26.9702 24.338 26.9702 23.9356C26.9702 23.5332 26.8104 23.1472 26.5258 22.8627C26.2413 22.5781 25.8553 22.4182 25.4529 22.4182ZM34.9059 20.385C33.9348 21.614 32.4478 22.4182 30.7636 22.4182C30.0808 22.4182 29.4283 22.2665 28.8062 22.0086C28.791 25.8778 28.2296 30.5512 26.1357 32.9638C25.3467 33.859 24.3908 34.3445 23.1769 34.4963V31.5223H21.6595V34.4963C20.4457 34.3445 19.4898 33.8742 18.7007 32.9638C16.5916 30.536 16.0302 25.8929 16.015 22.0237C15.4081 22.2665 14.7556 22.4182 14.0728 22.4182C12.3886 22.4182 10.9016 21.614 9.93051 20.385C8.58007 21.7354 7.24481 22.4182 7.24481 22.4182C7.24481 22.4182 8.76215 25.4529 11.7968 25.4529C12.3431 25.4529 12.7679 25.3922 13.1321 25.3164C13.648 31.1126 15.7116 37.5916 22.4182 37.5916C29.1249 37.5916 31.1884 31.1126 31.7043 25.3164C32.0685 25.3922 32.4934 25.4529 33.0396 25.4529C36.0743 25.4529 37.5916 22.4182 37.5916 22.4182C37.5916 22.4182 36.2564 21.7354 34.9059 20.385Z" fill="#FCC436"/>
</svg>
